/vscmnt/brussel_pixiu_data/_data_brussel/112/vsc11236/PredSimResults/SUBJ07mtu3D/worker9.mot
version=1
nRows=5
nColumns=50
inDegrees=yes
endheader
                time	         pelvis_tilt	         pelvis_list	     pelvis_rotation	           pelvis_tx	           pelvis_ty	           pelvis_tz	       hip_flexion_r	     hip_adduction_r	      hip_rotation_r	        knee_angle_r	       ankle_angle_r	         mtp_angle_r	       hip_flexion_l	     hip_adduction_l	      hip_rotation_l	        knee_angle_l	       ankle_angle_l	         mtp_angle_l	    lumbar_extension	      lumbar_bending	     lumbar_rotation	 ercspn_r/activation	 intobl_r/activation	 extobl_r/activation	    abd_r/activation	    add_r/activation	hamstrings_r/activation	bifemsh_r/activation	glut_max_r/activation	iliopsoas_r/activation	rect_fem_r/activation	  vasti_r/activation	gastroc_r/activation	 soleus_r/activation	tib_ant_r/activation	 ercspn_l/activation	 intobl_l/activation	 extobl_l/activation	    abd_l/activation	    add_l/activation	hamstrings_l/activation	bifemsh_l/activation	glut_max_l/activation	iliopsoas_l/activation	rect_fem_l/activation	  vasti_l/activation	gastroc_l/activation	 soleus_l/activation	tib_ant_l/activation	
          0.54886126	         -3.56093322	         -0.39514740	         -7.83614494	          0.66961074	          0.85092874	          0.01252155	        -14.53343264	          1.02826751	          3.68321280	         -9.26426227	          8.81209078	         26.49890374	         30.11057267	         -2.25987649	         -3.32700513	         -8.04555047	          6.05380401	          0.26209693	        -10.58936547	          2.09633941	          1.32957581	          0.13556732	          0.01000050	          0.01000059	          0.03681272	          0.01001538	          0.01472022	          0.13399226	          0.01655589	          0.18134843	          0.01183191	          0.01000466	          0.13207182	          0.27844116	          0.01958300	          0.12793893	          0.14008532	          0.01000206	          0.02567377	          0.12901928	          0.06096411	          0.08743732	          0.07719034	          0.02686802	          0.01183241	          0.01000118	          0.01000098	          0.01000035	          0.33142601	
          0.55983849	         -3.55338162	         -0.45680307	         -7.80355520	          0.68534404	          0.84938337	          0.01233256	        -14.98666866	          1.00450962	          3.30949161	        -10.38050614	          7.93423431	         28.09287213	         29.80922973	         -2.03568886	         -2.83284799	         -9.37451390	          5.76684127	          0.24574036	        -10.45527328	          1.70887257	          1.58512695	          0.15311178	          0.01000035	          0.01000271	          0.03111935	          0.02190115	          0.01249766	          0.11327018	          0.01399564	          0.15330302	          0.01000380	          0.01000070	          0.11164591	          0.26042606	          0.01655435	          0.10815263	          0.12542637	          0.01000077	          0.02170456	          0.10906706	          0.05759576	          0.08156157	          0.12930568	          0.02271277	          0.01000389	          0.01000133	          0.01655829	          0.01270673	          0.35303198	
          0.57081572	         -3.54074873	         -0.51259132	         -7.72259249	          0.70121704	          0.84804154	          0.01206463	        -15.30045645	          0.98666533	          2.89690565	        -11.75829213	          6.93923814	         29.63350171	         29.43650414	         -1.85893228	         -2.36722067	        -10.63659524	          5.41390135	          0.24380738	        -10.31174707	          1.31344729	          1.83222189	          0.16428268	          0.01000032	          0.01000122	          0.02630651	          0.01851444	          0.01060053	          0.09575280	          0.01183142	          0.12959509	          0.01001565	          0.01000155	          0.09437899	          0.23851820	          0.01399410	          0.14265534	          0.10602853	          0.01000105	          0.10665238	          0.12408988	          0.05072726	          0.07499009	          0.13406148	          0.01920019	          0.01000124	          0.01000029	          0.01399759	          0.01074161	          0.40127393	
          0.58179294	         -3.52509577	         -0.58165370	         -7.59604534	          0.71703188	          0.84707612	          0.01170327	        -15.39519831	          0.99502861	          2.45429720	        -13.50470382	          5.79627032	         31.06666947	         29.08028351	         -1.69940442	         -1.99026331	        -11.89449918	          4.97495274	          0.22655342	        -10.18098594	          0.93232683	          2.06868501	          0.19730472	          0.01000027	          0.01000094	          0.02223801	          0.02088331	          0.01037407	          0.08094456	          0.01000263	          0.10955307	          0.01000624	          0.01000145	          0.07978254	          0.20550938	          0.01182984	          0.14572860	          0.08963048	          0.01000072	          0.14829608	          0.14838502	          0.04361868	          0.06339370	          0.15017425	          0.01623086	          0.01000189	          0.01784057	          0.01183318	          0.01000088	          0.42456246	
          0.59277017	         -3.50695344	         -0.65622391	         -7.43089351	          0.73266759	          0.84660529	          0.01125181	        -15.20412405	          1.01942291	          1.98635506	        -15.71498244	          4.52521798	         32.24868837	         28.78345777	         -1.54222128	         -1.67652186	        -13.26576188	          4.70649430	          0.21053833	        -10.07004741	          0.55962981	          2.29441291	          0.22198325	          0.01000029	          0.01000084	          0.01879874	          0.04527619	          0.01050543	          0.06842659	          0.01000085	          0.09261043	          0.01000335	          0.01000075	          0.06744354	          0.17372579	          0.01000042	          0.15468892	          0.07576849	          0.01000070	          0.17917420	          0.16792224	          0.04368283	          0.05359111	          0.16301823	          0.01372082	          0.01000169	          0.04272164	          0.01000419	          0.01000147	          0.43333188	
